<svg xmlns="http://www.w3.org/2000/svg" viewBox="0 0 133.88 525.45"><defs><style>.cls-1{fill:none;}.cls-2{fill:#272727;}</style></defs><g id="Layer_2" data-name="Layer 2"><g id="Layer_1-2" data-name="Layer 1"><path class="cls-1" d="M118.49,409.32c-15.72,2.1-31.39,4.49-47.36,4.19-18.5-.34-36.91-1.26-55-5.29-1.69-.38-3.81-1.27-4.64,1.16-.76,2.2.43,4,2.4,5a25.33,25.33,0,0,0,5.63,2.05c32.46,7.25,65,6.64,97.55.72a35.93,35.93,0,0,0,4.19-1.21c2-1.5,2.73-3.1,1.92-5C122.24,408.72,120.35,409.07,118.49,409.32Z"/><path class="cls-1" d="M119,439.29c-1.2.09-2.4.28-3.59.47C82.16,445.1,49,446,16.07,438c-1.94-.47-4.28-1.17-5.2,1.37s.91,4.12,3.07,5.09a26,26,0,0,0,4,1.36c12.66,3.52,25.61,4.32,38.69,5.06,20.41,1.16,40.52-.53,60.58-3.89a31.84,31.84,0,0,0,3.65-1,3.93,3.93,0,0,0,1.82-4.5C122.23,439.44,120.66,439.17,119,439.29Z"/><path class="cls-1" d="M85.8,131.12c-.08-9.61-5.38-16.23-13.79-20.32-6.06-2.94-11.74-1.62-16.78,2.27a16.32,16.32,0,0,0-6.16,13.34c.22,22.32.21,44.63.25,67q.12,84.15.17,168.29c0,5.05,2.16,7.17,7.14,7.62,7.25.66,14.48-.06,21.71.2,5.71.21,8-2.35,7.94-7.93-.2-19.3-.27-38.6-.31-57.9q-.12-52.78-.14-105.56C85.81,175.76,86,153.44,85.8,131.12Z"/><path class="cls-1" d="M117,491.63c-2.93-1.06-3.92,3.25-6.15,4.76a14.39,14.39,0,0,0-2,2.24c-1.65,1.71-3.48,4.38-5.94,2.18s.23-4.35,1.61-6.12c3.21-4.11,6.72-8,9.88-12.15,1.76-2.31,5-5.66,2.54-7.79-2.78-2.35-4.87,1.93-6.83,3.9-3.67,3.72-7,7.78-10.83,11.32-2,1.88-3.93,7-7.33,3.43-2.7-2.86,1.43-5.63,3.47-7.88,6.6-7.3,13.37-14.47,20-21.74,1.34-1.46,3-3.32,1-5.2-1.62-1.56-3.47-.13-4.86.94-4,3.09-7.79,6.38-11.76,9.46-1.89,1.47-4.33,3.42-6.39,1.15s.81-3.8,2.13-5.39c.76-.91,2-1.7,1.4-3.08s-1.89-1.36-3.09-1.36c-1.41,0-2.81.14-4.21.24a268.28,268.28,0,0,1-64.91-3.11c-6.48-1.09-7.7,0-7.68,6.87,0,10.66.35,21.33-.25,31.95a17.55,17.55,0,0,0,3.71,11.93,23.64,23.64,0,0,0,10.75,7.05c7.84,2.43,15.8,2.47,23.89,1.69,17.42-1.68,34.87-3,52.27-4.78,8.43-.87,12.23-5.61,11.2-13.3C118.37,496.34,119.3,492.44,117,491.63Z"/><path class="cls-1" d="M17.94,350.71C18,365,19,366,33.31,367.14c4.75.37,6.36-.94,6.3-5.93-.28-25.53-.21-51.07-.25-76.61q-.12-74.79-.24-149.6c0-6.48-.51-12.91-4.43-18.49C29.9,110,23,110.77,19.58,118.12c-1.92,4.14-2.09,8.61-2.1,13-.07,18.49,0,37,.09,55.49Q17.77,268.66,17.94,350.71Z"/><path class="cls-1" d="M95.7,142.52c1.17,2.58,2.81,1.84,4.17.28,4.86-5.56,9.88-11,14.33-16.9,2.92-3.86,1.06-7.7-2.08-10.7-2.81-2.7-6-2.86-8.74-1C99.29,117.65,93.88,138.49,95.7,142.52Z"/><path class="cls-1" d="M37.12,105.14a6.46,6.46,0,0,1,1.44,1.08c3.24,3.86,6.2,3,9.78.1,11.68-9.4,23-10,34.5-.52,5.82,4.8,9.78,7.55,15.23.45.89-1.16,2.73-1.69,4.22-2.26,4.41-1.71,5-4.43,3.06-8.59C100.73,85.34,96.44,75.12,92,65c-2-4.6-4.19-9.14-5.72-12.5-2.31-3.25-4.43-3.58-6.7-2.81-7.69,2.61-15.51,2.26-23.27.76-4-.77-5.9.76-7.5,4.16C43.49,65.9,37.9,77.06,32.59,88.35,27.61,99,27.71,99,37.12,105.14Z"/><path class="cls-1" d="M116.22,329.88c-1.86-.56-2.66,1.49-3.49,2.74-5.06,7.68-10,15.42-15,23.15a10.12,10.12,0,0,0-1.47,8.05c.6,2.56,1.86,3.54,4.71.78,5.74-8.41,12.13-17.36,16.47-27.55a6.39,6.39,0,0,0,.29-3C117.58,332.56,118,330.42,116.22,329.88Z"/><path class="cls-1" d="M117.6,304.05c-.42-2.67-1.5-3.72-4-1.47-4.41,6.81-8.67,13.84-13.4,20.54a22.85,22.85,0,0,0-4.23,17c.18,1.32-.58,3.16,1.09,3.73s2.44-1.16,3.13-2.28c5.82-9.57,12-18.95,16.52-29.25A14.48,14.48,0,0,0,117.6,304.05Z"/><path class="cls-1" d="M95.94,246.58c.17,1.35-.28,3.13,1.32,3.71,1.79.65,2.28-1.19,3-2.3a114.93,114.93,0,0,1,13-16.52c4.49-4.84,4.26-10.6,4.17-16.37,0-2.86-1.54-4.13-4.22-2.07-4.16,5.26-8.1,10.6-12.42,15.6C96.19,233.92,95.06,239.93,95.94,246.58Z"/><path class="cls-1" d="M96.63,158.53c-1,2-.67,4.69-.84,7.07-.08,1.18-.05,2.55,1.2,3.16,1.72.84,2.52-.67,3.39-1.7,4.91-5.8,9.75-11.66,14.71-17.43,3.48-4.06,2-8.8,1.76-13.25-.17-2.55-2.13-1.57-3.75-.35C107.49,143.24,100.88,150.05,96.63,158.53Z"/><path class="cls-1" d="M19,386.24c32.93,7.54,65.94,6.24,99,.63a27.82,27.82,0,0,0,3.63-1.16,9.37,9.37,0,0,0,1.19-8.55c-1-3.24-3.79-2.18-6.14-1.86-9.57,1.3-19.1,3.26-28.71,3.74-23.77,1.17-47.5.65-70.85-4.78-4.44-1-5.9.56-5.72,4.88C11.59,384.19,15.18,385.36,19,386.24Z"/><path class="cls-1" d="M116.24,159.89c-1.1-.38-1.86.4-2.7,1-4.13,4.94-8,10.13-12.47,14.73-4.79,5-6.23,10.57-5.32,17.12.19,1.33-.37,3.12,1.43,3.55,1.57.37,2.48-1.07,3.38-2.14,4.12-4.95,8-10.09,12.38-14.82,4.55-5,5-10.73,4.45-16.9C117.29,161.46,117.42,160.3,116.24,159.89Z"/><path class="cls-1" d="M116.7,269.86c-1.08-.62-1.86.16-3,1.29-3.69,5-7.26,11-11.87,15.93-6.51,7-6.17,15.23-5.76,23.67.06,1.16-.17,2.69,1.24,3.1s2-1,2.8-1.87c4.58-5.62,7.47-12.47,12-18,5.44-6.57,5.8-13.78,5.5-21.47C117.59,271.54,117.71,270.43,116.7,269.86Z"/><path class="cls-1" d="M97.47,221.21c1.33.32,2.12-.93,2.86-1.86,5.1-6.45,10.14-12.95,15.26-19.38,2.54-3.19,1.89-6.88,1.66-10.41-.2-2.95-2-3.14-3.38-2-5.14,6.08-9.5,11.59-14.24,16.76-3.62,3.94-4.4,8.39-3.7,13.37C96.11,219,95.66,220.78,97.47,221.21Z"/><path class="cls-1" d="M116.31,240.56c-1.54-.79-2.64.32-3.72,1.21-3.11,2.62-16,23.24-16.5,27.08a58.71,58.71,0,0,0-.2,8.4c0,1.19,0,2.56,1.27,3.13,1.73.74,2.56-.72,3.37-1.8,3.61-4.82,6.65-10.18,10.85-14.41,5.72-5.76,6.41-12.56,6.26-19.89C117.61,242.88,117.81,241.33,116.31,240.56Z"/><path class="cls-2" d="M133.17,415.69c2.17-11.06-1.43-22.68-.22-34.13.4-3.77,0-7.63-.07-11.46,0-2.05-.25-4.22-1.94-5.53-3.57-2.78-3.38-6.66-3.39-10.46q-.1-42.54-.12-85.08c-.07-39.81,0-79.63-.34-119.44-.11-12.74,1.31-25.47-4-38C108,76.14,92.49,41,75.41,6.5,74,3.66,73,.18,69,0c-4.27-.19-5.54,3.35-7.09,6.41-16.15,32-32.18,64-47.49,96.42-4.43,9.38-7.4,18.87-7,29.57.68,20.71.56,41.45.57,62.18,0,51.5-.09,103,0,154.52,0,5.27-.11,10-4.72,13.53-1.72,1.31-1.86,3.42-1.87,5.51-.08,13.74.1,27.5-.5,41.21-.24,5.44,2.13,10.75.48,16.08-2.15,6.95-1.23,14-1,21,.08,2.09.87,4.07,2.89,5,3.34,1.51,3.88,4.27,3.89,7.47,0,11.67.18,23.34.15,35a29,29,0,0,0,6.73,18.93c6.81,8.44,16.12,12.41,26.47,12.59,23.2.4,46.2-2.76,69.15-5.65,11.15-1.41,16.94-8.28,18-19.59.55-5.79-.09-11.68.36-17.48.85-10.75-3.09-22.21,4.58-32,.64-.82.42-2.33.56-3.52C134.37,436.69,131.05,426.45,133.17,415.69ZM116.75,312.31c-4.53,10.3-10.7,19.68-16.52,29.25-.69,1.12-1.49,2.83-3.13,2.28s-.91-2.41-1.09-3.73a22.85,22.85,0,0,1,4.23-17c4.73-6.7,9-13.73,13.4-20.54,2.46-2.25,3.54-1.2,4,1.47A14.48,14.48,0,0,1,116.75,312.31Zm.68,24.74c-4.34,10.19-10.73,19.14-16.47,27.55-2.85,2.76-4.11,1.78-4.71-.78a10.12,10.12,0,0,1,1.47-8.05c5-7.73,10-15.47,15-23.15.83-1.25,1.63-3.3,3.49-2.74s1.36,2.68,1.5,4.21A6.39,6.39,0,0,1,117.43,337.05ZM100.78,228.63c4.32-5,8.26-10.34,12.42-15.6,2.68-2.06,4.18-.79,4.22,2.07.09,5.77.32,11.53-4.17,16.37a114.93,114.93,0,0,0-13,16.52c-.7,1.11-1.19,2.95-3,2.3-1.6-.58-1.15-2.36-1.32-3.71C95.06,239.93,96.19,233.92,100.78,228.63Zm-1.15-24.3c4.74-5.17,9.1-10.68,14.24-16.76,1.4-1.15,3.18-1,3.38,2,.23,3.53.88,7.22-1.66,10.41-5.12,6.43-10.16,12.93-15.26,19.38-.74.93-1.53,2.18-2.86,1.86-1.81-.43-1.36-2.19-1.54-3.51C95.23,212.72,96,208.27,99.63,204.33ZM112.13,294c-4.55,5.5-7.44,12.35-12,18-.75.91-1.43,2.27-2.8,1.87s-1.18-1.94-1.24-3.1c-.41-8.44-.75-16.65,5.76-23.67,4.61-5,8.18-10.9,11.87-15.93,1.14-1.13,1.92-1.91,3-1.29s.89,1.68.93,2.68C117.93,280.23,117.57,287.44,112.13,294Zm-.75-29.84c-4.2,4.23-7.24,9.59-10.85,14.41-.81,1.08-1.64,2.54-3.37,1.8-1.3-.57-1.28-1.94-1.27-3.13a58.71,58.71,0,0,1,.2-8.4c.55-3.84,13.39-24.46,16.5-27.08,1.08-.89,2.18-2,3.72-1.21s1.3,2.32,1.33,3.72C117.79,251.61,117.1,258.41,111.38,264.17Zm1.56-84.82c-4.35,4.73-8.26,9.87-12.38,14.82-.9,1.07-1.81,2.51-3.38,2.14-1.8-.43-1.24-2.22-1.43-3.55-.91-6.55.53-12.17,5.32-17.12,4.47-4.6,8.34-9.79,12.47-14.73.84-.62,1.6-1.4,2.7-1s1.05,1.57,1.15,2.56C118,168.62,117.49,174.39,112.94,179.35Zm3.91-43c.28,4.45,1.72,9.19-1.76,13.25-5,5.77-9.8,11.63-14.71,17.43-.87,1-1.67,2.54-3.39,1.7-1.25-.61-1.28-2-1.2-3.16.17-2.38-.16-5.07.84-7.07,4.25-8.48,10.86-15.29,16.47-22.5C114.72,134.81,116.68,133.83,116.85,136.38Zm-4.73-21.18c3.14,3,5,6.84,2.08,10.7-4.45,5.88-9.47,11.34-14.33,16.9-1.36,1.56-3,2.3-4.17-.28-1.82-4,3.59-24.87,7.68-28.27C106.12,112.34,109.31,112.5,112.12,115.2ZM32.59,88.35C37.9,77.06,43.49,65.9,48.78,54.6c1.6-3.4,3.51-4.93,7.5-4.16,7.76,1.5,15.58,1.85,23.27-.76,2.27-.77,4.39-.44,6.7,2.81,1.53,3.36,3.69,7.9,5.72,12.5,4.47,10.13,8.76,20.35,13.38,30.41,1.91,4.16,1.35,6.88-3.06,8.59-1.49.57-3.33,1.1-4.22,2.26-5.45,7.1-9.41,4.35-15.23-.45-11.54-9.53-22.82-8.88-34.5.52-3.58,2.88-6.54,3.76-9.78-.1a6.46,6.46,0,0,0-1.44-1.08C27.71,99,27.61,99,32.59,88.35ZM86,303.64c0,19.3.11,38.6.31,57.9.06,5.58-2.23,8.14-7.94,7.93-7.23-.26-14.46.46-21.71-.2-5-.45-7.14-2.57-7.14-7.62q0-84.13-.17-168.29c0-22.32,0-44.63-.25-67a16.32,16.32,0,0,1,6.16-13.34c5-3.89,10.72-5.21,16.78-2.27,8.41,4.09,13.71,10.71,13.79,20.32.18,22.32,0,44.64,0,67Q85.86,250.85,86,303.64ZM17.48,131.14c0-4.41.18-8.88,2.1-13C23,110.77,29.9,110,34.69,116.51c3.92,5.58,4.42,12,4.43,18.49q.16,74.81.24,149.6c0,25.54,0,51.08.25,76.61.06,5-1.55,6.3-6.3,5.93C19,366,18,365,17.94,350.71q-.14-82-.37-164.08C17.52,168.13,17.41,149.63,17.48,131.14Zm-.39,243.12c23.35,5.43,47.08,5.95,70.85,4.78,9.61-.48,19.14-2.44,28.71-3.74,2.35-.32,5.1-1.38,6.14,1.86a9.37,9.37,0,0,1-1.19,8.55,27.82,27.82,0,0,1-3.63,1.16c-33,5.61-66,6.91-99-.63-3.83-.88-7.42-2.05-7.64-7.1C11.19,374.82,12.65,373.22,17.09,374.26Zm90.42,137.88c-17.4,1.79-34.85,3.1-52.27,4.78-8.09.78-16.05.74-23.89-1.69a23.64,23.64,0,0,1-10.75-7.05,17.55,17.55,0,0,1-3.71-11.93c.6-10.62.27-21.29.25-31.95,0-6.88,1.2-8,7.68-6.87a268.28,268.28,0,0,0,64.91,3.11c1.4-.1,2.8-.24,4.21-.24,1.2,0,2.55.05,3.09,1.36s-.64,2.17-1.4,3.08c-1.32,1.59-4.24,3.08-2.13,5.39s4.5.32,6.39-1.15c4-3.08,7.79-6.37,11.76-9.46,1.39-1.07,3.24-2.5,4.86-.94,2,1.88.3,3.74-1,5.2-6.65,7.27-13.42,14.44-20,21.74-2,2.25-6.17,5-3.47,7.88,3.4,3.62,5.3-1.55,7.33-3.43,3.82-3.54,7.16-7.6,10.83-11.32,2-2,4-6.25,6.83-3.9,2.51,2.13-.78,5.48-2.54,7.79-3.16,4.15-6.67,8-9.88,12.15-1.38,1.77-4.2,3.82-1.61,6.12s4.29-.47,5.94-2.18a14.39,14.39,0,0,1,2-2.24c2.23-1.51,3.22-5.82,6.15-4.76,2.27.81,1.34,4.71,1.68,7.21C119.74,506.53,115.94,511.27,107.51,512.14ZM120.85,446a31.84,31.84,0,0,1-3.65,1c-20.06,3.36-40.17,5.05-60.58,3.89-13.08-.74-26-1.54-38.69-5.06a26,26,0,0,1-4-1.36c-2.16-1-4-2.5-3.07-5.09s3.26-1.84,5.2-1.37c33,8,66.09,7.08,99.29,1.74,1.19-.19,2.39-.38,3.59-.47,1.71-.12,3.28.15,3.72,2.19A3.93,3.93,0,0,1,120.85,446Zm.37-30.08a35.93,35.93,0,0,1-4.19,1.21c-32.56,5.92-65.09,6.53-97.55-.72a25.33,25.33,0,0,1-5.63-2.05c-2-1-3.16-2.76-2.4-5,.83-2.43,3-1.54,4.64-1.16,18.13,4,36.54,4.95,55,5.29,16,.3,31.64-2.09,47.36-4.19,1.86-.25,3.75-.6,4.65,1.56C124,412.8,123.24,414.4,121.22,415.9Z"/></g></g></svg>